<svg xmlns="http://www.w3.org/2000/svg" enable-background="new 0 0 64 64" viewBox="0 0 64 64"><path fill="#57cef3" d="M61.3,13.2L59,7c-8.6,4.3-7.9,0-17,0c-6.6,0-13,5.4-13,12c0,1,0.1,2,0.4,3C19.3,21.5,11.3,15.5,5.5,8
		C4.5,9.7,3,13.8,3,16c0,7.2,0,11,0,11s3.5,7.5,4.5,9.7c1.4,4.8,6.7,9,11.8,9.3c10.7,0,35.2-2.5,36-24.7
		C55.3,21.2,59.5,15.9,61.3,13.2z"/><path fill="#1d9bf0" d="M26.5,16c-0.2,0.8-0.4,1.6-0.4,2.4C19.1,17,13,13.1,8.7,7.6C7.9,6.6,6.6,6,5.3,6.1c-1.3,0.1-2.5,0.9-3.2,2
		C0.8,10.4,0,13.1,0,16c0,2.2,0.5,4.3,1.3,6.2C0.5,23,0,24.1,0,25.2c0,1,0.1,1.9,0.3,2.9c0.5,2.6,1.7,5,3.3,7c0.3,0.4,0.6,0.7,1,1.1
		c-0.2,0.7-0.2,1.5,0,2.2c1,3.3,3,6.2,5.7,8.3c-2,0.8-4.2,1.2-6.4,1.3c-1.8,0.1-3.3,1.3-3.7,3.1s0.4,3.6,2,4.4
		C7.5,58.4,13.5,60,20,60c8.6,0,16.6-2.9,23-7.7c9.1-6.9,12.9-18,13-30.2l0,0h-2c0,10.3-9.7,19-22.8,21.4C29,43.8,26.6,44,24,44
		c-6.8,0-12.5-1.6-14.2-3.7c-0.2-0.2-0.3-0.5-0.4-0.7c-0.4-0.7-0.7-1.5-0.9-2.2c0.7,0.1,1.3,0.2,2,0.2c0.1,0,0.2,0,0.3,0
		c0.6,0,1.3-0.1,1.9-0.2c0.5-0.1,1.1-0.2,1.6-0.4c-0.7-0.1-1.3-0.2-1.9-0.4c-0.1,0-0.3-0.1-0.4-0.1c-0.2-0.1-0.4-0.1-0.6-0.2
		c-0.3-0.1-0.6-0.3-0.9-0.4c-0.6-0.3-1.1-0.6-1.6-1c-0.5-0.4-1-0.8-1.4-1.2c-0.3-0.3-0.5-0.5-0.8-0.8C6,31.8,5.5,30.9,5,29.9
		c-0.4-0.8-0.6-1.7-0.8-2.5c0-0.2-0.1-0.4-0.1-0.6C4,26.2,4,25.7,4,25.2c1.3,0.7,2.7,1.1,4.1,1.3c0.5,0.1,0.9,0.1,1.4,0.1
		c0.2,0,0.4,0,0.7,0c-0.2-0.1-0.4-0.3-0.7-0.4c-1.6-1-2.9-2.4-3.9-4.1c-0.1-0.2-0.2-0.4-0.4-0.7C4.5,19.8,4,17.9,4,16
		c0-0.5,0-1,0.1-1.5c0.2-1.6,0.7-3.1,1.5-4.5c0.9,1.1,1.9,2.2,2.9,3.3c4.7,4.7,10.9,8,17.7,9.2c1.4,0.2,2.8,0.4,4.2,0.5
		C30.1,22,30,21,30,20c0-0.4,0-0.7,0-1.1c0.1-1,0.3-2,0.6-2.9H26.5z"/><path fill="#314a52" d="M41.4,53.4c10-6.8,16.5-18.2,16.6-31.2c2.1-1.8,3.8-3.8,5.3-6.1c1-1.4,0.9-3.4-0.3-4.8
		c-0.3-0.3-0.6-0.6-0.9-0.8c0-0.1,0.1-0.3,0.1-0.4c0.5-1.5,0-3.2-1.3-4.2c-1.2-1-2.9-1.2-4.4-0.5c-1.6,0.8-3.2,1.4-4.9,1.9
		C49.1,5.2,45.7,4,42,4c-8.3,0-15.1,6.3-15.9,14.4c1.3,0.3,2.6,0.4,4,0.5C30.6,12.8,35.7,8,42,8c3.4,0,6.5,1.4,8.7,3.7
		c0.6-0.1,1.2-0.3,1.9-0.5c2.1-0.6,4.1-1.4,5.9-2.3c-0.2,0.5-0.3,1-0.6,1.5c-0.2,0.5-0.5,1.1-0.8,1.6c-0.7,1.1-1.6,2-2.6,2.8
		c-0.4,0.3-0.8,0.6-1.3,0.9l0,0l0,0l0,0c2.4-0.3,4.6-0.9,6.8-1.9c-1.3,1.9-2.8,3.7-4.5,5.1c-0.2,0.2-0.4,0.4-0.6,0.5
		c-0.3,0.2-0.6,0.4-0.9,0.7l0,1.7c0,11.6-5.8,21.9-14.7,28L41.4,53.4z"/></svg>