<svg xmlns="http://www.w3.org/2000/svg" enable-background="new 0 0 64 64" viewBox="0 0 64 64"><circle cx="32" cy="32" r="29" fill="#fff"/><path fill="#acbdc5" d="M4,32c0-10.7,6-20,14.9-24.7L17,3.7C6.9,9.1,0,19.7,0,32c0,5.6,1.4,10.8,3.9,15.4L0.1,61.5
		c-0.2,0.7,0,1.4,0.5,1.9c0.5,0.5,1.2,0.7,1.9,0.5l14.1-3.8C21.2,62.6,26.4,64,32,64c6.2,0,12.1-1.8,17-4.9c9-5.7,13-15.7,13-27.1
		h-2c0,0.1,0,0.3,0,0.4C59.8,47.5,47.3,52,32,52C16.6,52,4.2,47.5,4,32.3C4,32.2,4,32.1,4,32z"/><path fill="#cce490" fill-rule="evenodd" d="M25.8,20.5l2.4,5.8c0.1,0.3,0.1,0.7-0.1,1l-1.7,2.1c-0.2,0.3-0.3,0.7-0.1,1c0.5,0.9,1.6,2.8,3.5,4.6
		c1.9,1.7,3.7,2.7,4.7,3.2c0.4,0.2,0.9,0,1.1-0.3l1.9-2.6c0.3-0.4,0.8-0.5,1.3-0.3l4.7,2.4c0.3,0.2,0.5,0.5,0.5,0.9v1
		c0,2.7-2.1,4.8-4.8,4.8c-1.6,0-7.2-0.9-12.4-6C21.6,32.9,20,27.7,20,26v-1c0-2.8,2.3-5,5-5C25.4,20,25.7,20.2,25.8,20.5z M32,54
		c12.2,0,22-9.8,22-22c0-12.2-9.8-22-22-22c-12.2,0-22,9.8-22,22C10,44.2,19.8,54,32,54z" clip-rule="evenodd"/><path fill="#2cb441" fill-rule="evenodd" d="M12,32c0-11,9-20,20-20c11,0,20,9,20,20c0,11-9,14-20,14C21,46,12,43,12,32z M32,8C18.7,8,8,18.7,8,32
		c0,5.1,1.6,9.9,4.3,13.8L10,54l8.2-2.3C22.1,54.4,26.9,56,32,56c13.3,0,24-10.7,24-24C56,18.7,45.3,8,32,8z" clip-rule="evenodd"/><path fill="#314a52" fill-rule="evenodd" d="M16,4.3C23.3,0,32.1-1.1,40.3,1.1C48.5,3.3,55.5,8.7,59.7,16c4.2,7.3,5.4,16.1,3.2,24.3S55.3,55.5,48,59.7
		l-2-3.5c6.4-3.7,11.1-9.8,13-17S60,24.4,56.2,18s-9.8-11.1-17-13C32.1,3,24.4,4,18,7.8L16,4.3z" clip-rule="evenodd"/></svg>